<?xml version="1.0" encoding="UTF-8" standalone="no"?>
<svg
   xmlns:dc="http://purl.org/dc/elements/1.1/"
   xmlns:cc="http://creativecommons.org/ns#"
   xmlns:rdf="http://www.w3.org/1999/02/22-rdf-syntax-ns#"
   xmlns:svg="http://www.w3.org/2000/svg"
   xmlns="http://www.w3.org/2000/svg"
   xmlns:sodipodi="http://sodipodi.sourceforge.net/DTD/sodipodi-0.dtd"
   xmlns:inkscape="http://www.inkscape.org/namespaces/inkscape"
   width="80"
   height="80"
   viewBox="0 0 21.166666 21.166667"
   version="1.1"
   id="svg1408"
   inkscape:version="1.0.1 (3bc2e813f5, 2020-09-07)"
   sodipodi:docname="js.svg">
  <defs
     id="defs1402" />
  <sodipodi:namedview
     id="base"
     pagecolor="#ffffff"
     bordercolor="#666666"
     borderopacity="1.0"
     inkscape:pageopacity="0.0"
     inkscape:pageshadow="2"
     inkscape:zoom="3.959798"
     inkscape:cx="106.40104"
     inkscape:cy="56.555969"
     inkscape:document-units="mm"
     inkscape:current-layer="layer1"
     inkscape:document-rotation="0"
     showgrid="false"
     units="px"
     inkscape:window-width="1920"
     inkscape:window-height="1017"
     inkscape:window-x="-8"
     inkscape:window-y="-8"
     inkscape:window-maximized="1" />
  <metadata
     id="metadata1405">
    <rdf:RDF>
      <cc:Work
         rdf:about="">
        <dc:format>image/svg+xml</dc:format>
        <dc:type
           rdf:resource="http://purl.org/dc/dcmitype/StillImage" />
        <dc:title></dc:title>
      </cc:Work>
    </rdf:RDF>
  </metadata>
  <g
     inkscape:label="Warstwa 1"
     inkscape:groupmode="layer"
     id="layer1">
    <g
       id="g1749"
       transform="matrix(0.9724349,0,0,0.9724349,87.623333,-95.603956)">
      <path
         style="fill:none;stroke:#333333;stroke-width:0.6;stroke-miterlimit:7;stroke-dasharray:none"
         d="M -89.807145,119.78066 V 98.61399 h 21.166667 v 21.16667 z"
         id="path911"
         inkscape:export-filename="C:\Projekty\PersonalPage\portfolio\public\js.png"
         inkscape:export-xdpi="93.353737"
         inkscape:export-ydpi="93.353737" />
      <path
         style="fill:#333333;stroke-width:1;stroke-miterlimit:7;stroke-dasharray:none"
         d="m -75.967673,114.45783 c 0.406871,0.66087 0.849019,1.2941 1.785644,1.2941 0.786694,0 1.199444,-0.39099 1.199444,-0.93192 0,-0.64734 -0.426861,-0.87724 -1.292342,-1.25412 l -0.474487,-0.20226 c -1.369365,-0.58091 -2.28012,-1.30881 -2.28012,-2.84633 0,-1.41699 1.084792,-2.49531 2.779889,-2.49531 1.207088,0 2.074333,0.41804 2.699926,1.51282 l -1.478139,0.94486 c -0.325143,-0.58091 -0.676745,-0.80962 -1.221787,-0.80962 -0.556213,0 -0.908403,0.35101 -0.908403,0.80962 0,0.5668 0.352778,0.7961 1.167107,1.14712 l 0.474486,0.20226 c 1.613958,0.68732 2.524125,1.38935 2.524125,2.96744 0,1.70039 -1.342908,2.63231 -3.145602,2.63231 -1.763301,0 -2.764602,-0.88488 -3.321991,-1.98025 z"
         id="path913"
         inkscape:export-filename="C:\Projekty\PersonalPage\portfolio\public\js.png"
         inkscape:export-xdpi="96.625801"
         inkscape:export-ydpi="96.625801" />
      <path
         style="fill:#333333;stroke-width:1;stroke-miterlimit:7;stroke-dasharray:none"
         d="m -82.779812,114.50604 c 0.29751,0.5327 0.749653,0.94251 1.39994,0.94251 0.622065,0 0.980134,-0.24577 0.980134,-1.20121 v -6.22594 h 1.959681 v 6.52697 c 0,1.97968 -1.148292,2.88043 -2.825162,2.88043 -1.515181,0 -2.608792,-1.02658 -3.054468,-1.98025 z"
         id="path915"
         inkscape:export-filename="C:\Projekty\PersonalPage\portfolio\public\js.png"
         inkscape:export-xdpi="96.625801"
         inkscape:export-ydpi="96.625801" />
    </g>
  </g>
</svg>
