<?xml version="1.0" encoding="UTF-8" standalone="no"?>
<svg
   xmlns:dc="http://purl.org/dc/elements/1.1/"
   xmlns:cc="http://creativecommons.org/ns#"
   xmlns:rdf="http://www.w3.org/1999/02/22-rdf-syntax-ns#"
   xmlns:svg="http://www.w3.org/2000/svg"
   xmlns="http://www.w3.org/2000/svg"
   xmlns:sodipodi="http://sodipodi.sourceforge.net/DTD/sodipodi-0.dtd"
   xmlns:inkscape="http://www.inkscape.org/namespaces/inkscape"
   width="80"
   height="80"
   viewBox="0 0 21.166666 21.166667"
   version="1.1"
   id="svg1408"
   sodipodi:docname="ts.svg"
   inkscape:version="1.0.1 (3bc2e813f5, 2020-09-07)">
  <sodipodi:namedview
     pagecolor="#ffffff"
     bordercolor="#666666"
     borderopacity="1"
     objecttolerance="10"
     gridtolerance="10"
     guidetolerance="10"
     inkscape:pageopacity="0"
     inkscape:pageshadow="2"
     inkscape:window-width="1920"
     inkscape:window-height="1017"
     id="namedview1796"
     showgrid="false"
     inkscape:zoom="2.65625"
     inkscape:cx="31.294077"
     inkscape:cy="107.9546"
     inkscape:window-x="-8"
     inkscape:window-y="-8"
     inkscape:window-maximized="1"
     inkscape:current-layer="svg1408"
     inkscape:document-rotation="0" />
  <defs
     id="defs1402" />
  <metadata
     id="metadata1405">
    <rdf:RDF>
      <cc:Work
         rdf:about="">
        <dc:format>image/svg+xml</dc:format>
        <dc:type
           rdf:resource="http://purl.org/dc/dcmitype/StillImage" />
        <dc:title />
      </cc:Work>
    </rdf:RDF>
  </metadata>
  <g
     id="g1859"
     transform="translate(64.215776,-98.125003)">
    <rect
       x="-63.924046"
       y="98.416733"
       style="fill:none;stroke:#333333;stroke-width:0.583461;stroke-miterlimit:4;stroke-dasharray:none"
       width="20.583206"
       height="20.583206"
       id="rect930"
       inkscape:export-filename="C:\Projekty\PersonalPage\portfolio\public\ts.png"
       inkscape:export-xdpi="93.353752"
       inkscape:export-ydpi="93.353752" />
    <g
       id="g936"
       transform="matrix(0.49114714,0,0,0.51399968,-64.672332,96.722793)"
       style="fill:#333333"
       inkscape:export-filename="C:\Projekty\PersonalPage\portfolio\public\ts.png"
       inkscape:export-xdpi="96.625801"
       inkscape:export-ydpi="96.625801">
      <polygon
         style="fill:#333333"
         points="22.753,40 22.753,25.264 27.49,25.264 27.49,22 14.227,22 14.227,25.264 18.984,25.264 18.984,40 "
         id="polygon932" />
      <path
         style="fill:#333333"
         d="m 39.194,26.084 c 0,0 -1.787,-1.192 -3.807,-1.192 -2.02,0 -2.747,0.96 -2.747,1.986 0,2.648 7.381,2.383 7.381,7.712 0,8.209 -11.254,4.568 -11.254,4.568 V 35.22 c 0,0 2.152,1.622 4.733,1.622 2.581,0 2.483,-1.688 2.483,-1.92 0,-2.449 -7.315,-2.449 -7.315,-7.878 0,-7.381 10.658,-4.469 10.658,-4.469 z"
         id="path934" />
    </g>
  </g>
</svg>
