<?xml version="1.0" encoding="UTF-8" standalone="no"?>
<svg
   xmlns:dc="http://purl.org/dc/elements/1.1/"
   xmlns:cc="http://creativecommons.org/ns#"
   xmlns:rdf="http://www.w3.org/1999/02/22-rdf-syntax-ns#"
   xmlns:svg="http://www.w3.org/2000/svg"
   xmlns="http://www.w3.org/2000/svg"
   xmlns:sodipodi="http://sodipodi.sourceforge.net/DTD/sodipodi-0.dtd"
   xmlns:inkscape="http://www.inkscape.org/namespaces/inkscape"
   width="80"
   height="80"
   viewBox="0 0 21.166666 21.166667"
   version="1.1"
   id="svg1408"
   inkscape:version="1.0.1 (3bc2e813f5, 2020-09-07)"
   sodipodi:docname="vite.svg">
  <defs
     id="defs1402" />
  <sodipodi:namedview
     id="base"
     pagecolor="#ffffff"
     bordercolor="#666666"
     borderopacity="1.0"
     inkscape:pageopacity="0.0"
     inkscape:pageshadow="2"
     inkscape:zoom="3.959798"
     inkscape:cx="106.40104"
     inkscape:cy="56.555969"
     inkscape:document-units="mm"
     inkscape:current-layer="layer1"
     inkscape:document-rotation="0"
     showgrid="false"
     units="px"
     inkscape:window-width="1920"
     inkscape:window-height="1017"
     inkscape:window-x="-8"
     inkscape:window-y="-8"
     inkscape:window-maximized="1" />
  <metadata
     id="metadata1405">
    <rdf:RDF>
      <cc:Work
         rdf:about="">
        <dc:format>image/svg+xml</dc:format>
        <dc:type
           rdf:resource="http://purl.org/dc/dcmitype/StillImage" />
        <dc:title></dc:title>
      </cc:Work>
    </rdf:RDF>
  </metadata>
  <g
     inkscape:label="Warstwa 1"
     inkscape:groupmode="layer"
     id="layer1">
    <g
       id="fluent"
       style="fill:none;stroke:#333333;stroke-width:1.20793;stroke-miterlimit:4;stroke-dasharray:none"
       transform="matrix(0.48754929,0,0,0.47880631,-1.0619981,-1.142853)"
       inkscape:export-filename="C:\Projekty\PersonalPage\portfolio\public\vite.png"
       inkscape:export-xdpi="93.379021"
       inkscape:export-ydpi="93.379021">
      <path
         style="fill:none;stroke:#333333;stroke-width:1.20793;stroke-miterlimit:4;stroke-dasharray:none"
         d="M 32.134977,10.824401 43.726,8.389 C 44.623,8.225 45.305,9.18 44.86,9.976 L 25.023,45.448 c -0.41,0.732 -1.462,0.737 -1.878,0.008 L 2.915,9.979 C 2.462,9.185 3.141,8.223 4.041,8.384 l 14.316428,2.77734"
         id="path962"
         sodipodi:nodetypes="cccccccc" />
      <path
         style="fill:none;stroke:#333333;stroke-width:1.20793;stroke-miterlimit:4;stroke-dasharray:none"
         d="M 33.574,3.01 19.019,5.862 c -0.239,0.047 -0.416,0.25 -0.431,0.493 l -0.895,15.121 c -0.021,0.356 0.306,0.633 0.654,0.552 l 4.052,-0.935 c 0.379,-0.087 0.722,0.246 0.644,0.628 l -1.204,5.895 c -0.081,0.397 0.291,0.736 0.679,0.618 l 2.503,-0.76 c 0.388,-0.118 0.761,0.222 0.679,0.62 l -1.913,9.26 c -0.12,0.579 0.651,0.895 0.972,0.398 l 0.215,-0.332 11.86,-23.669 c 0.199,-0.396 -0.144,-0.848 -0.579,-0.764 l -4.171,0.805 c -0.392,0.076 -0.725,-0.289 -0.615,-0.673 L 34.191,3.681 C 34.301,3.299 33.967,2.933 33.574,3.01 Z"
         id="path964" />
    </g>
  </g>
</svg>
