<?xml version="1.0" encoding="UTF-8" standalone="no"?>
<svg
   xmlns:dc="http://purl.org/dc/elements/1.1/"
   xmlns:cc="http://creativecommons.org/ns#"
   xmlns:rdf="http://www.w3.org/1999/02/22-rdf-syntax-ns#"
   xmlns:svg="http://www.w3.org/2000/svg"
   xmlns="http://www.w3.org/2000/svg"
   xmlns:sodipodi="http://sodipodi.sourceforge.net/DTD/sodipodi-0.dtd"
   xmlns:inkscape="http://www.inkscape.org/namespaces/inkscape"
   width="80"
   height="80"
   viewBox="0 0 21.166666 21.166667"
   version="1.1"
   id="svg1408"
   inkscape:version="1.0.1 (3bc2e813f5, 2020-09-07)"
   sodipodi:docname="bootstrap.svg">
  <defs
     id="defs1402" />
  <sodipodi:namedview
     id="base"
     pagecolor="#ffffff"
     bordercolor="#666666"
     borderopacity="1.0"
     inkscape:pageopacity="0.0"
     inkscape:pageshadow="2"
     inkscape:zoom="3.959798"
     inkscape:cx="106.40104"
     inkscape:cy="56.555969"
     inkscape:document-units="mm"
     inkscape:current-layer="layer1"
     inkscape:document-rotation="0"
     showgrid="false"
     units="px"
     inkscape:window-width="1920"
     inkscape:window-height="1017"
     inkscape:window-x="-8"
     inkscape:window-y="-8"
     inkscape:window-maximized="1" />
  <metadata
     id="metadata1405">
    <rdf:RDF>
      <cc:Work
         rdf:about="">
        <dc:format>image/svg+xml</dc:format>
        <dc:type
           rdf:resource="http://purl.org/dc/dcmitype/StillImage" />
        <dc:title></dc:title>
      </cc:Work>
    </rdf:RDF>
  </metadata>
  <g
     inkscape:label="Warstwa 1"
     inkscape:groupmode="layer"
     id="layer1">
    <path
       d="m 4.3962585,1.9242435 c -1.2079499,0 -2.10135,1.08579 -2.06142,2.2634297 0.0385,1.13097 -0.0118,2.59669 -0.37114,3.79116 -0.35983,1.19833 -0.96886002,1.95579 -1.9637000166667,2.0529698 v 1.103061 C 0.99483848,11.232064 1.6038685,11.989503 1.9636985,13.187823 c 0.35935,1.19448 0.40914,2.66019 0.37114,3.79117 -0.0399,1.17763 0.8534701,2.26343 2.06142,2.26343 H 16.772288 c 1.20795,0 2.10135,-1.0858 2.06142,-2.26343 -0.0385,-1.13098 0.0114,-2.59669 0.37019,-3.79117 0.36032,-1.19832 0.96794,-1.95579 1.96277,-2.052959 v -1.103061 c -0.99483,-0.0972 -1.60245,-0.8546398 -1.96277,-2.0529698 -0.35935,-1.19447 -0.40867,-2.66019 -0.37019,-3.79116 0.0395,-1.1776397 -0.85442,-2.2634297 -2.06235,-2.2634297 z m 0,0.9621201 H 16.771358 c 0.35261,0 0.5975,0.1759799 0.74038,0.3241499 0.24053,0.24871 0.37188,0.59309 0.35985,0.9442697 -0.038,1.12087 0.002,2.74177 0.41059,4.10029 0.37523,1.24883 0.96563,1.9482198 1.57754,2.3282608 -0.61143,0.380039 -1.20183,1.0799 -1.57754,2.328259 -0.40841,1.35852 -0.4486,2.97942 -0.41059,4.10029 0.012,0.35117 -0.11932,0.69508 -0.35985,0.94426 -0.14288,0.14818 -0.38777,0.32416 -0.74038,0.32416 H 4.3962585 c -0.35262,0 -0.59657,-0.17598 -0.73945,-0.32416 -0.2405298,-0.2487 -0.3718799,-0.59309 -0.35985,-0.94426 0.038,-1.12087 -0.003,-2.74177 -0.4115301,-4.10029 -0.3752299,-1.248359 -0.9656399,-1.94822 -1.5775499,-2.328259 0.61191,-0.380041 1.20232,-1.0799108 1.5775499,-2.3282608 0.4084201,-1.35852 0.44953,-2.97942 0.4115301,-4.10029 -0.012,-0.3511797 0.1193202,-0.6955597 0.35985,-0.9442697 0.14288,-0.14817 0.38683,-0.3241499 0.73945,-0.3241499 z m 2.7557597,3.1907796 v 9.0114298 h 3.7084898 c 0.96356,0 1.76386,-0.23478 2.31322,-0.68025 0.55034,-0.44594 0.84092,-1.0946 0.84092,-1.87632 0,-1.180519 -0.83933,-2.067899 -2.08961,-2.2127 v -0.0141 c 0.91931,-0.15874 1.63673,-1.0202098 1.63673,-1.9693298 0,-0.67108 -0.25774,-1.23922 -0.74601,-1.64331 -0.48636,-0.402659 -1.16969,-0.615429 -1.97499,-0.615429 z m 1.46854,1.17916 h 1.8772798 c 1.02994,0 1.59726,0.451501 1.59726,1.27219 -4.76e-4,0.88081 -0.67413,1.36613 -1.89699,1.36613 H 8.6205582 Z m 0,3.7423098 h 1.8641198 c 1.34697,0 2.03041,0.48723 2.03041,1.44695 0,0.95875 -0.67388,1.46573 -1.94772,1.46573 H 8.6205582 Z"
       id="path1331"
       style="fill:#333333;stroke-width:0.48106" />
  </g>
</svg>
