<?xml version="1.0" encoding="UTF-8" standalone="no"?>
<svg
   xmlns:dc="http://purl.org/dc/elements/1.1/"
   xmlns:cc="http://creativecommons.org/ns#"
   xmlns:rdf="http://www.w3.org/1999/02/22-rdf-syntax-ns#"
   xmlns:svg="http://www.w3.org/2000/svg"
   xmlns="http://www.w3.org/2000/svg"
   xmlns:sodipodi="http://sodipodi.sourceforge.net/DTD/sodipodi-0.dtd"
   xmlns:inkscape="http://www.inkscape.org/namespaces/inkscape"
   width="80"
   height="80"
   viewBox="0 0 21.166666 21.166667"
   version="1.1"
   id="svg1408"
   inkscape:version="1.0.1 (3bc2e813f5, 2020-09-07)"
   sodipodi:docname="css.svg">
  <defs
     id="defs1402" />
  <sodipodi:namedview
     id="base"
     pagecolor="#ffffff"
     bordercolor="#666666"
     borderopacity="1.0"
     inkscape:pageopacity="0.0"
     inkscape:pageshadow="2"
     inkscape:zoom="3.959798"
     inkscape:cx="106.40104"
     inkscape:cy="56.555969"
     inkscape:document-units="mm"
     inkscape:current-layer="layer1"
     inkscape:document-rotation="0"
     showgrid="false"
     units="px"
     inkscape:window-width="1920"
     inkscape:window-height="1017"
     inkscape:window-x="-8"
     inkscape:window-y="-8"
     inkscape:window-maximized="1" />
  <metadata
     id="metadata1405">
    <rdf:RDF>
      <cc:Work
         rdf:about="">
        <dc:format>image/svg+xml</dc:format>
        <dc:type
           rdf:resource="http://purl.org/dc/dcmitype/StillImage" />
        <dc:title></dc:title>
      </cc:Work>
    </rdf:RDF>
  </metadata>
  <g
     inkscape:label="Warstwa 1"
     inkscape:groupmode="layer"
     id="layer1">
    <g
       id="g1498"
       transform="translate(0,-14.272733)">
      <g
         aria-label="{:}"
         transform="scale(0.99445116,1.0055798)"
         id="text1160-1"
         style="font-style:normal;font-weight:normal;font-size:10.8606px;line-height:1.25;font-family:sans-serif;fill:#333333;fill-opacity:1;stroke:none;stroke-width:0.271515">
        <path
           d="m 7.4552669,30.031875 v 0.763636 H 7.1264792 q -1.3204539,0 -1.7712112,-0.392424 Q 4.9098137,30.010663 4.9098137,28.838694 V 27.57127 q 0,-0.800757 -0.2863635,-1.108333 Q 4.3370867,26.155362 3.5840568,26.155362 H 3.2605721 v -0.758333 h 0.3234847 q 0.7583329,0 1.0393934,-0.302273 0.2863635,-0.307575 0.2863635,-1.097727 v -1.272726 q 0,-1.171969 0.4454543,-1.55909 0.4507573,-0.392424 1.7712112,-0.392424 h 0.3287877 v 0.758333 H 7.094661 q -0.7477269,0 -0.9757571,0.233333 -0.2280301,0.233333 -0.2280301,0.98106 v 1.315151 q 0,0.832575 -0.2439393,1.20909 -0.2386363,0.376515 -0.8219693,0.509091 0.5886361,0.143181 0.8272723,0.519696 0.2386363,0.376515 0.2386363,1.203788 v 1.315151 q 0,0.747726 0.2280301,0.98106 0.2280302,0.233333 0.9757571,0.233333 z"
           style="fill:#333333;stroke-width:0.271515"
           id="path1485" />
        <path
           d="m 10.085569,27.677331 h 1.118938 V 29.0243 h -1.118938 z m 0,-4.268938 h 1.118938 v 1.346969 h -1.118938 z"
           style="fill:#333333;stroke-width:0.271515"
           id="path1487" />
        <path
           d="m 13.829506,30.031875 h 0.371211 q 0.742424,0 0.965152,-0.22803 0.22803,-0.228031 0.22803,-0.986363 v -1.315151 q 0,-0.827273 0.238636,-1.203788 0.238636,-0.376515 0.827272,-0.519696 -0.588636,-0.132576 -0.827272,-0.509091 -0.238636,-0.376515 -0.238636,-1.20909 v -1.315151 q 0,-0.75303 -0.22803,-0.98106 -0.222728,-0.233333 -0.965152,-0.233333 h -0.371211 v -0.758333 h 0.33409 q 1.320454,0 1.760605,0.392424 0.445455,0.387121 0.445455,1.55909 v 1.272726 q 0,0.790152 0.286363,1.097727 0.286364,0.302273 1.039394,0.302273 H 18.0242 v 0.758333 h -0.328787 q -0.75303,0 -1.039394,0.307575 -0.286363,0.307576 -0.286363,1.108333 v 1.267424 q 0,1.171969 -0.445455,1.564393 -0.440151,0.392424 -1.760605,0.392424 h -0.33409 z"
           style="fill:#333333;stroke-width:0.271515"
           id="path1489" />
      </g>
      <rect
         style="fill:none;stroke:#333333;stroke-width:0.59409;stroke-linejoin:miter;stroke-miterlimit:4;stroke-dasharray:none"
         id="rect1188-8"
         width="20.570147"
         height="20.570147"
         x="0.29826006"
         y="14.572208"
         inkscape:export-filename="C:\Projekty\PersonalPage\portfolio\public\css.png"
         inkscape:export-xdpi="96"
         inkscape:export-ydpi="96" />
      <rect
         style="fill:none;stroke:#333333;stroke-width:0.598951;stroke-linejoin:miter;stroke-miterlimit:4;stroke-dasharray:none"
         id="rect1190-0"
         width="20.570162"
         height="3.0532568"
         x="0.29825243"
         y="14.572208"
         inkscape:export-filename="C:\Projekty\PersonalPage\portfolio\public\css.png"
         inkscape:export-xdpi="96"
         inkscape:export-ydpi="96" />
    </g>
  </g>
</svg>
