<?xml version="1.0" encoding="UTF-8" standalone="no"?>
<svg
   xmlns:dc="http://purl.org/dc/elements/1.1/"
   xmlns:cc="http://creativecommons.org/ns#"
   xmlns:rdf="http://www.w3.org/1999/02/22-rdf-syntax-ns#"
   xmlns:svg="http://www.w3.org/2000/svg"
   xmlns="http://www.w3.org/2000/svg"
   xmlns:sodipodi="http://sodipodi.sourceforge.net/DTD/sodipodi-0.dtd"
   xmlns:inkscape="http://www.inkscape.org/namespaces/inkscape"
   width="80"
   height="80"
   viewBox="0 0 21.166666 21.166667"
   version="1.1"
   id="svg1408"
   inkscape:version="1.0.1 (3bc2e813f5, 2020-09-07)"
   sodipodi:docname="mui.svg">
  <defs
     id="defs1402" />
  <sodipodi:namedview
     id="base"
     pagecolor="#ffffff"
     bordercolor="#666666"
     borderopacity="1.0"
     inkscape:pageopacity="0.0"
     inkscape:pageshadow="2"
     inkscape:zoom="3.959798"
     inkscape:cx="106.40104"
     inkscape:cy="56.555969"
     inkscape:document-units="mm"
     inkscape:current-layer="layer1"
     inkscape:document-rotation="0"
     showgrid="false"
     units="px"
     inkscape:window-width="1920"
     inkscape:window-height="1017"
     inkscape:window-x="-8"
     inkscape:window-y="-8"
     inkscape:window-maximized="1" />
  <metadata
     id="metadata1405">
    <rdf:RDF>
      <cc:Work
         rdf:about="">
        <dc:format>image/svg+xml</dc:format>
        <dc:type
           rdf:resource="http://purl.org/dc/dcmitype/StillImage" />
        <dc:title></dc:title>
      </cc:Work>
    </rdf:RDF>
  </metadata>
  <g
     inkscape:label="Warstwa 1"
     inkscape:groupmode="layer"
     id="layer1">
    <g
       id="g1400"
       inkscape:export-filename="C:\Projekty\PersonalPage\portfolio\public\mui.png"
       inkscape:export-xdpi="96"
       inkscape:export-ydpi="96"
       transform="matrix(0.97354249,0,0,0.97354249,186.76779,-122.23322)">
      <path
         id="path1372"
         style="fill:none;stroke:#333333;stroke-width:0.6;stroke-miterlimit:4;stroke-dasharray:none"
         d="m -180.98265,143.28619 c -0.87221,-0.50483 -1.74442,-1.00966 -2.61663,-1.51449 -0.005,-1.0196 -0.009,-2.0392 -0.014,-3.0588 1.76141,-1.01318 3.52281,-2.02635 5.28422,-3.03953 6.4e-4,-1.01908 0.001,-2.03817 0.002,-3.05725 -1.76467,1.01192 -3.52407,2.03306 -5.28612,3.04955 -1.75764,-1.01511 -3.51527,-2.03022 -5.27291,-3.04533 -0.0108,2.02494 0.007,4.05054 -0.0368,6.07491 -0.87593,-0.49869 -1.74672,-1.00636 -2.61982,-1.50998 -6.1e-4,-3.0457 -0.004,-6.09146 0.0105,-9.13712 2.64323,1.51606 5.27931,3.04458 7.91872,4.5673 2.63939,-1.52275 5.27552,-3.05118 7.91872,-4.5673 0.0207,3.04547 0.006,6.09146 0.0105,9.13716 -1.74528,1.03027 -3.53934,1.98904 -5.24235,3.08248 0.86706,0.49837 1.73256,0.99945 2.59876,1.49931 1.76222,-1.01774 3.52443,-2.03547 5.28665,-3.0532 0,-1.01528 0,-2.03057 0,-3.04585 0.8732,-0.50362 1.74398,-1.01146 2.62005,-1.51006 0.0362,2.02875 0.008,4.05851 0.01,6.0877 -2.64125,1.52014 -5.27216,3.05859 -7.92563,4.55724 -0.88679,-0.49468 -1.76953,-1.01099 -2.64525,-1.51674 z m 7.9424,-12.20781 c 0,-0.50527 0,-1.01055 0,-1.51582 0.87323,-0.50363 1.74403,-1.01151 2.62016,-1.51009 0.036,1.01298 0.008,2.02744 0.009,3.04108 -0.86966,0.50052 -1.73375,1.01094 -2.61003,1.4998 -0.0248,-0.50421 -0.0164,-1.01068 -0.0196,-1.51497 z" />
      <rect
         style="fill:none;stroke:none;stroke-width:0.387096;stroke-linejoin:miter;stroke-miterlimit:4;stroke-dasharray:none"
         id="rect1299-4-2"
         width="21.166666"
         height="21.166666"
         x="-191.556"
         y="125.84271"
         inkscape:export-filename="C:\Projekty\PersonalPage\portfolio\public\docker.png"
         inkscape:export-xdpi="96"
         inkscape:export-ydpi="96" />
    </g>
  </g>
</svg>
