<?xml version="1.0" encoding="UTF-8" standalone="no"?>
<svg
   xmlns:dc="http://purl.org/dc/elements/1.1/"
   xmlns:cc="http://creativecommons.org/ns#"
   xmlns:rdf="http://www.w3.org/1999/02/22-rdf-syntax-ns#"
   xmlns:svg="http://www.w3.org/2000/svg"
   xmlns="http://www.w3.org/2000/svg"
   xmlns:sodipodi="http://sodipodi.sourceforge.net/DTD/sodipodi-0.dtd"
   xmlns:inkscape="http://www.inkscape.org/namespaces/inkscape"
   width="80"
   height="80"
   viewBox="0 0 21.166666 21.166667"
   version="1.1"
   id="svg1408"
   inkscape:version="1.0.1 (3bc2e813f5, 2020-09-07)"
   sodipodi:docname="redux.svg">
  <defs
     id="defs1402" />
  <sodipodi:namedview
     id="base"
     pagecolor="#ffffff"
     bordercolor="#666666"
     borderopacity="1.0"
     inkscape:pageopacity="0.0"
     inkscape:pageshadow="2"
     inkscape:zoom="3.959798"
     inkscape:cx="106.40104"
     inkscape:cy="56.555969"
     inkscape:document-units="mm"
     inkscape:current-layer="layer1"
     inkscape:document-rotation="0"
     showgrid="false"
     units="px"
     inkscape:window-width="1920"
     inkscape:window-height="1017"
     inkscape:window-x="-8"
     inkscape:window-y="-8"
     inkscape:window-maximized="1" />
  <metadata
     id="metadata1405">
    <rdf:RDF>
      <cc:Work
         rdf:about="">
        <dc:format>image/svg+xml</dc:format>
        <dc:type
           rdf:resource="http://purl.org/dc/dcmitype/StillImage" />
        <dc:title></dc:title>
      </cc:Work>
    </rdf:RDF>
  </metadata>
  <g
     inkscape:label="Warstwa 1"
     inkscape:groupmode="layer"
     id="layer1">
    <g
       id="g1257"
       inkscape:export-filename="C:\Projekty\PersonalPage\portfolio\public\redux.png"
       inkscape:export-xdpi="96"
       inkscape:export-ydpi="96"
       transform="translate(165.8916,-98.491409)">
      <path
         d="m -155.75024,98.92637 c -3.16304,0 -5.73653,3.65916 -5.73653,8.15747 0,2.24814 0.6553,4.26629 1.69528,5.7391 -0.2485,0.32372 -0.37146,0.71599 -0.37146,1.10663 0,0.42901 0.14059,0.86395 0.44213,1.20315 0.30152,0.3392 0.77137,0.56193 1.32296,0.56193 0.55159,0 1.02144,-0.22273 1.32295,-0.56193 0.3015,-0.3392 0.44213,-0.77414 0.44213,-1.20315 0,-0.429 -0.1406,-0.86395 -0.44213,-1.20314 -0.30151,-0.3392 -0.77136,-0.56193 -1.32295,-0.56193 -0.25686,0 -0.4932,0.052 -0.70586,0.13792 -0.91904,-1.32148 -1.5005,-3.16324 -1.5005,-5.21855 0,-4.01159 2.17767,-7.27494 4.85398,-7.27494 2.39124,0 4.37882,2.60765 4.7764,6.02353 0.31198,0.11875 0.62154,0.25252 0.92823,0.3999 -0.3005,-4.0994 -2.7437,-7.30596 -5.70463,-7.30596 z m -0.88254,5.73652 c -0.55159,0 -1.02144,0.22273 -1.32295,0.56193 -0.30152,0.33919 -0.44213,0.77414 -0.44213,1.20314 0,0.42903 0.14059,0.86397 0.44213,1.20317 0.30151,0.33919 0.77136,0.56193 1.32295,0.56193 0.55159,0 1.02144,-0.22274 1.32294,-0.56193 0.18845,-0.21201 0.30721,-0.46285 0.37492,-0.72483 1.57869,-0.0679 3.35287,0.39852 4.98411,1.37639 3.48339,2.08809 5.23801,5.72927 3.91111,8.1161 -0.47392,0.8521 -1.30128,1.45702 -2.39165,1.7487 -1.52768,0.40952 -3.40415,0.15778 -5.19528,-0.65242 -0.25858,0.20784 -0.53206,0.40451 -0.81359,0.59469 1.46723,0.7409 3.01995,1.13335 4.45409,1.13335 0.62262,0 1.22276,-0.0732 1.78317,-0.22324 1.3269,-0.35522 2.342,-1.10663 2.93462,-2.17274 1.55505,-2.79854 -0.34197,-6.97081 -4.22913,-9.30116 -1.75452,-1.05246 -3.68213,-1.56729 -5.42022,-1.51084 -0.0629,-0.28597 -0.18794,-0.56059 -0.39215,-0.79031 -0.3015,-0.3392 -0.77135,-0.56193 -1.32294,-0.56193 z m 0,0.88254 c 0.33095,0 0.523,0.10824 0.66276,0.26545 0.13976,0.15727 0.21978,0.38419 0.21978,0.61708 0,0.23289 -0.08,0.45986 -0.21978,0.6171 -0.13976,0.15728 -0.33181,0.26545 -0.66276,0.26545 -0.33096,0 -0.52301,-0.10824 -0.66277,-0.26545 -0.13976,-0.15727 -0.21978,-0.38421 -0.21978,-0.6171 0,-0.23289 0.08,-0.45984 0.21978,-0.61708 0.13976,-0.15727 0.33181,-0.26545 0.66277,-0.26545 z m -5.66499,2.79414 c -3.07301,2.40051 -4.43922,5.98997 -3.05098,8.48756 0.59264,1.06611 1.60772,1.81667 2.93462,2.17189 0.56086,0.1501 1.16055,0.22409 1.78319,0.22409 1.67684,0 3.51763,-0.53323 5.19268,-1.53756 2.01031,-1.20522 3.45809,-2.90295 4.19467,-4.648 0.50962,-0.0245 0.94533,-0.2333 1.229,-0.55245 0.30152,-0.3392 0.44214,-0.77414 0.44214,-1.20315 0,-0.42901 -0.1406,-0.86395 -0.44214,-1.20315 -0.3015,-0.3392 -0.77135,-0.56193 -1.32294,-0.56193 -0.55159,0 -1.02144,0.22273 -1.32295,0.56193 -0.30152,0.3392 -0.44213,0.77414 -0.44213,1.20315 0,0.42901 0.1406,0.86395 0.44213,1.20315 0.1466,0.16477 0.33461,0.30055 0.55073,0.39818 -0.69212,1.5042 -2.00106,2.97755 -3.7827,4.04556 -2.09603,1.25718 -4.44874,1.71289 -6.29414,1.21865 -1.09082,-0.29211 -1.91732,-0.8966 -2.39079,-1.7487 -1.1217,-2.01793 -0.0358,-4.92808 2.42957,-7.0431 -0.0641,-0.33139 -0.11375,-0.67105 -0.14994,-1.01612 z m 10.96024,2.05983 c 0.33096,0 0.523,0.10824 0.66276,0.26546 0.13976,0.15728 0.21979,0.3842 0.21979,0.61709 0,0.23289 -0.0801,0.45986 -0.21979,0.61708 -0.13976,0.15728 -0.3318,0.26547 -0.66276,0.26547 -0.33096,0 -0.52301,-0.10824 -0.66277,-0.26547 -0.13976,-0.15727 -0.21978,-0.38419 -0.21978,-0.61708 0,-0.23289 0.08,-0.45986 0.21978,-0.61709 0.13976,-0.15727 0.33181,-0.26546 0.66277,-0.26546 z m -7.06033,2.64763 c 0.33094,0 0.523,0.10824 0.66276,0.26546 0.13977,0.15727 0.21977,0.38419 0.21977,0.61708 0,0.23289 -0.08,0.45986 -0.21977,0.61709 -0.13976,0.15727 -0.33182,0.26546 -0.66276,0.26546 -0.33096,0 -0.523,-0.10824 -0.66278,-0.26546 -0.13976,-0.15728 -0.21977,-0.3842 -0.21977,-0.61709 0,-0.23289 0.0801,-0.45986 0.21977,-0.61708 0.13976,-0.15727 0.33182,-0.26546 0.66278,-0.26546 z"
         id="path1043"
         style="fill:#333333;stroke-width:0.44127"
         inkscape:export-filename="C:\Projekty\PersonalPage\portfolio\public\redux.png"
         inkscape:export-xdpi="96"
         inkscape:export-ydpi="96" />
      <rect
         style="fill:none;stroke:none;stroke-width:0.588957;stroke-linejoin:miter;stroke-miterlimit:4;stroke-dasharray:none"
         id="rect1232-6"
         width="21.166666"
         height="21.166666"
         x="-165.8916"
         y="98.491409" />
    </g>
  </g>
</svg>
