<?xml version="1.0" encoding="UTF-8" standalone="no"?>
<svg
   xmlns:dc="http://purl.org/dc/elements/1.1/"
   xmlns:cc="http://creativecommons.org/ns#"
   xmlns:rdf="http://www.w3.org/1999/02/22-rdf-syntax-ns#"
   xmlns:svg="http://www.w3.org/2000/svg"
   xmlns="http://www.w3.org/2000/svg"
   width="80"
   height="80"
   viewBox="0 0 21.166666 21.166667"
   version="1.1"
   id="svg1408">
  <defs
     id="defs1402" />
  <metadata
     id="metadata1405">
    <rdf:RDF>
      <cc:Work
         rdf:about="">
        <dc:format>image/svg+xml</dc:format>
        <dc:type
           rdf:resource="http://purl.org/dc/dcmitype/StillImage" />
        <dc:title></dc:title>
      </cc:Work>
    </rdf:RDF>
  </metadata>
  <g
     id="layer1">
    <g
       id="g1329"
       transform="translate(136.84787,-140.59065)">
      <path
         d="m -118.6329,152.3603 c -0.73954,0.003 -1.38044,0.18161 -1.91763,0.44617 -0.19641,-0.39198 -0.39537,-0.73699 -0.42881,-0.99352 -0.0389,-0.29929 -0.0842,-0.47792 -0.0373,-0.83477 0.047,-0.35686 0.25356,-0.86188 0.25018,-0.89954 -0.003,-0.0378 -0.0461,-0.21929 -0.47284,-0.22266 -0.4267,-0.003 -0.7916,0.0821 -0.83478,0.19471 -0.0432,0.11264 -0.12527,0.36618 -0.1761,0.63074 -0.0749,0.38691 -0.85171,1.76691 -1.29323,2.48867 -0.14431,-0.28192 -0.2671,-0.52999 -0.29251,-0.72641 -0.0389,-0.29929 -0.0842,-0.47792 -0.0373,-0.83477 0.047,-0.35686 0.25357,-0.86188 0.25018,-0.89954 -0.003,-0.0378 -0.0461,-0.21929 -0.47284,-0.22268 -0.4267,-0.003 -0.7916,0.0821 -0.83478,0.19473 -0.0432,0.11263 -0.089,0.3759 -0.1761,0.63074 -0.0877,0.25484 -1.12051,2.5564 -1.39101,3.15285 -0.13808,0.30394 -0.2578,0.54818 -0.34245,0.71498 -4.4e-4,-4.2e-4 -4.4e-4,-8.5e-4 -4.4e-4,-8.5e-4 0,0 -0.005,0.0112 -0.0144,0.0301 -0.0723,0.14175 -0.11552,0.22053 -0.11552,0.22053 0,0 4.2e-4,0.001 0.001,0.003 -0.0576,0.10416 -0.11887,0.20108 -0.14943,0.20108 -0.0211,0 -0.064,-0.2777 0.01,-0.65826 0.15359,-0.79836 0.52279,-2.04375 0.5194,-2.0865 -0.002,-0.0221 0.0686,-0.23875 -0.24128,-0.35262 -0.30098,-0.11008 -0.4085,0.0736 -0.43602,0.0741 -0.0267,4.1e-4 -0.0465,0.0648 -0.0465,0.0648 0,0 0.33568,-1.40032 -0.64006,-1.40032 -0.60957,0 -1.45451,0.66714 -1.87105,1.27164 -0.26245,0.14303 -0.82462,0.44998 -1.42107,0.77763 -0.22901,0.12575 -0.46268,0.2544 -0.6845,0.37675 -0.016,-0.0165 -0.0301,-0.0334 -0.0458,-0.0499 -1.18274,-1.26191 -3.36874,-2.15425 -3.27603,-3.85046 0.0339,-0.61678 0.24806,-2.24061 4.20097,-4.2103 3.23793,-1.61367 5.83031,-1.16961 6.27818,-0.18541 0.64005,1.40582 -1.38552,4.01895 -4.7479,4.39571 -1.28136,0.14351 -1.95572,-0.35306 -2.12378,-0.53804 -0.17652,-0.19473 -0.20275,-0.20361 -0.2688,-0.1668 -0.10751,0.0597 -0.0394,0.23156 0,0.334 0.10032,0.26119 0.51222,0.72472 1.21492,0.955 0.61804,0.20278 2.12207,0.3141 3.94147,-0.38945 2.03742,-0.78821 3.62824,-2.98056 3.16132,-4.81308 -0.47539,-1.86386 -3.56557,-2.47639 -6.49025,-1.43757 -1.74068,0.61845 -3.62485,1.58911 -4.97988,2.85609 -1.61113,1.50701 -1.86766,2.81844 -1.76182,3.36621 0.37632,1.94724 3.0597,3.21507 4.1345,4.15482 -0.053,0.0293 -0.10288,0.0568 -0.14815,0.0817 -0.53889,0.26668 -2.58434,1.33726 -3.09614,2.46834 -0.58036,1.28307 0.0923,2.20378 0.53804,2.32782 1.38,0.38393 2.79642,-0.30692 3.55754,-1.44224 0.76112,-1.13491 0.66799,-2.6127 0.31875,-3.28745 -0.005,-0.008 -0.01,-0.0165 -0.0128,-0.025 0.13936,-0.0826 0.28108,-0.16595 0.42162,-0.24849 0.2743,-0.16087 0.54354,-0.31114 0.77721,-0.43855 -0.13087,0.35811 -0.22647,0.78735 -0.27642,1.40752 -0.0584,0.72851 0.24002,1.66997 0.63074,2.04037 0.17187,0.16297 0.37886,0.16678 0.51009,0.16678 0.45464,0 0.66207,-0.37802 0.89023,-0.82545 0.28025,-0.54862 0.52873,-1.18699 0.52873,-1.18699 0,0 -0.31199,1.72501 0.53802,1.72501 0.30945,0 0.621,-0.40173 0.75986,-0.60618 4.1e-4,0.002 4.1e-4,0.003 4.1e-4,0.003 0,0 0.008,-0.0128 0.0237,-0.0402 0.0322,-0.0491 0.0504,-0.0805 0.0504,-0.0805 0,0 8.5e-4,-0.003 0.002,-0.01 0.12448,-0.21587 0.40046,-0.70862 0.81446,-1.52138 0.53465,-1.04983 1.04771,-2.36463 1.04771,-2.36463 0,0 0.0478,0.32171 0.20403,0.85297 0.0918,0.31283 0.28744,0.65867 0.44151,0.99013 -0.12399,0.17229 -0.20021,0.27093 -0.20021,0.27093 0,0 8.5e-4,0.002 0.002,0.005 -0.099,0.13167 -0.21039,0.27346 -0.3268,0.4123 -0.42205,0.50291 -0.92495,1.07691 -0.99225,1.24286 -0.0792,0.19514 -0.0605,0.33907 0.0926,0.45422 0.11183,0.0841 0.31114,0.0973 0.5194,0.0833 0.37929,-0.0254 0.6464,-0.11983 0.77806,-0.17695 0.2053,-0.0725 0.44448,-0.18668 0.66884,-0.35178 0.41399,-0.30437 0.66376,-0.73995 0.64005,-1.31693 -0.0128,-0.3179 -0.11472,-0.63285 -0.24298,-0.93044 0.0378,-0.0542 0.0754,-0.10831 0.11295,-0.16383 0.65276,-0.95457 1.15904,-2.00313 1.15904,-2.00313 0,0 0.0478,0.32173 0.20404,0.85299 0.0792,0.26922 0.23536,0.56258 0.37548,0.85044 -0.61381,0.49867 -0.99437,1.07818 -1.12686,1.45832 -0.24426,0.70312 -0.053,1.02187 0.30605,1.09426 0.16255,0.0329 0.39242,-0.0414 0.56513,-0.11472 0.21504,-0.071 0.47326,-0.19007 0.71456,-0.36744 0.414,-0.30435 0.81233,-0.73064 0.7882,-1.3076 -0.0112,-0.26247 -0.0821,-0.52323 -0.17863,-0.77383 0.52025,-0.21674 1.19417,-0.33737 2.05223,-0.23706 1.84099,0.21505 2.20208,1.36434 2.13307,1.84523 -0.069,0.48131 -0.45505,0.74546 -0.58416,0.82547 -0.12912,0.08 -0.16849,0.10751 -0.15744,0.16678 0.016,0.0864 0.0754,0.083 0.1854,0.0643 0.15152,-0.0254 0.96644,-0.39113 1.00157,-1.27925 0.044,-1.12517 -1.03627,-2.36337 -2.94966,-2.35321 z m -14.18866,4.78345 c -0.60958,0.66503 -1.4617,0.91647 -1.82703,0.70482 -0.39452,-0.22859 -0.23832,-1.20814 0.51009,-1.91381 0.45592,-0.43007 1.04476,-0.8263 1.43547,-1.07056 0.089,-0.0533 0.21927,-0.13199 0.37802,-0.22731 0.0262,-0.0144 0.0411,-0.0234 0.0411,-0.0234 l -4.2e-4,-8.5e-4 c 0.0304,-0.0182 0.0622,-0.0373 0.0944,-0.0568 0.27219,1.00496 0.008,1.88968 -0.63159,2.58773 z m 4.44185,-3.01993 c -0.21252,0.51772 -0.657,1.84227 -0.9275,1.77115 -0.23239,-0.0609 -0.37377,-1.06801 -0.0466,-2.05858 0.16467,-0.49866 0.51644,-1.09468 0.72344,-1.32624 0.33272,-0.3721 0.69932,-0.49401 0.78822,-0.34288 0.11392,0.19218 -0.40427,1.63188 -0.5376,1.95655 z m 3.67012,1.75127 c -0.0901,0.047 -0.17271,0.0766 -0.21081,0.0538 -0.0283,-0.017 0.0373,-0.0787 0.0373,-0.0787 0,0 0.45888,-0.49401 0.64005,-0.7188 0.10496,-0.13072 0.22734,-0.28615 0.35983,-0.45971 10e-4,0.0173 0.002,0.0347 0.002,0.0517 -0.002,0.5918 -0.57318,0.99098 -0.82801,1.15185 z m 2.82733,-0.64471 c -0.0674,-0.0478 -0.0558,-0.20236 0.16466,-0.68323 0.0867,-0.18881 0.28447,-0.50713 0.62862,-0.81107 0.0398,0.12479 0.0643,0.24467 0.0635,0.35643 -0.005,0.74461 -0.53591,1.02272 -0.85677,1.13787 z"
         id="path1301"
         style="fill:#333333;stroke-width:0.423314" />
      <rect
         style="fill:none;stroke:none;stroke-width:0.387096;stroke-linejoin:miter;stroke-miterlimit:4;stroke-dasharray:none"
         id="rect1299-6"
         width="21.166666"
         height="21.166666"
         x="-136.84787"
         y="140.59065" />
    </g>
  </g>
</svg>
