<?xml version="1.0" encoding="UTF-8" standalone="no"?>
<svg
   xmlns:dc="http://purl.org/dc/elements/1.1/"
   xmlns:cc="http://creativecommons.org/ns#"
   xmlns:rdf="http://www.w3.org/1999/02/22-rdf-syntax-ns#"
   xmlns:svg="http://www.w3.org/2000/svg"
   xmlns="http://www.w3.org/2000/svg"
   xmlns:sodipodi="http://sodipodi.sourceforge.net/DTD/sodipodi-0.dtd"
   xmlns:inkscape="http://www.inkscape.org/namespaces/inkscape"
   width="80"
   height="80"
   viewBox="0 0 21.166666 21.166667"
   version="1.1"
   id="svg1408"
   inkscape:version="1.0.1 (3bc2e813f5, 2020-09-07)"
   sodipodi:docname="cypress.svg">
  <defs
     id="defs1402" />
  <sodipodi:namedview
     id="base"
     pagecolor="#ffffff"
     bordercolor="#666666"
     borderopacity="1.0"
     inkscape:pageopacity="0.0"
     inkscape:pageshadow="2"
     inkscape:zoom="3.959798"
     inkscape:cx="106.40104"
     inkscape:cy="56.555969"
     inkscape:document-units="mm"
     inkscape:current-layer="layer1"
     inkscape:document-rotation="0"
     showgrid="false"
     units="px"
     inkscape:window-width="1920"
     inkscape:window-height="1017"
     inkscape:window-x="-8"
     inkscape:window-y="-8"
     inkscape:window-maximized="1" />
  <metadata
     id="metadata1405">
    <rdf:RDF>
      <cc:Work
         rdf:about="">
        <dc:format>image/svg+xml</dc:format>
        <dc:type
           rdf:resource="http://purl.org/dc/dcmitype/StillImage" />
        <dc:title></dc:title>
      </cc:Work>
    </rdf:RDF>
  </metadata>
  <g
     inkscape:label="Warstwa 1"
     inkscape:groupmode="layer"
     id="layer1">
    <g
       id="g1541"
       transform="matrix(0.97243458,0,0,0.97243458,-0.00767862,0.25222365)">
      <g
         id="g1536">
        <path
           d="m 10.88947,0.040635 c -5.8490707,0 -10.58157072,4.7333953 -10.58157072,10.583325 -0.004,5.84663 4.73670002,10.58723 10.58333072,10.58333 5.84994,0 10.58334,-4.7334 10.58334,-10.58333 -9e-4,-5.8499297 -4.7731,-10.583325 -10.5851,-10.583325 z"
           id="path1054"
           style="fill:none;stroke:#333333;stroke-width:0.600001;stroke-miterlimit:4;stroke-dasharray:none"
           sodipodi:nodetypes="scccs"
           inkscape:export-filename="C:\Projekty\PersonalPage\portfolio\public\path1054.png"
           inkscape:export-xdpi="93.353767"
           inkscape:export-ydpi="93.353767" />
        <path
           d="m 5.4706793,12.13403 c 0.34573,0.46127 0.8078602,0.65444 1.4614002,0.65444 0.3086599,0 0.61646,-0.039 0.88546,-0.15434 0.2699999,-0.11466 0.5776699,-0.27 0.9613395,-0.50006 l 1.0786,1.539 c -0.8846,0.73203 -1.8855995,1.07773 -3.0400695,1.07773 -0.92427,0 -1.6933301,-0.19234 -2.3856701,-0.57677 C 3.7596393,13.77754 3.2229293,13.18733 2.8918795,12.4807 2.5461794,11.74867 2.3530094,10.902 2.3530094,9.9010003 c 0,-0.96133 0.19333,-1.8468 0.5379999,-2.57793 0.3292501,-0.72839 0.8653502,-1.34392 1.5416302,-1.77007 0.6535399,-0.42333 1.46137,-0.6156 2.3468698,-0.6156 0.6164702,0 1.19327,0.0767 1.6554001,0.269 0.5184697,0.20069 0.9996296,0.48688 1.4234696,0.84667 l -1.07777,1.46226 c -0.2735997,-0.202 -0.5706096,-0.3702 -0.8845697,-0.50093 -0.2689998,-0.11467 -0.6155998,-0.15333 -0.9242999,-0.15333 -1.3079,0 -1.9623,1.00013 -1.9623,3.03916 -0.038,1.0406997 0.1543399,1.7709697 0.46214,2.2330997 H 5.4706798 Z M 16.05401,14.5197 c -0.3845,1.19326 -0.9622,2.07876 -1.77093,2.73226 -0.80787,0.6553 -1.8856,1.001 -3.23234,1.11654 l -0.269,-1.80797 c 0.8846,-0.11633 1.539,-0.30867 1.96234,-0.61737 0.15333,-0.11466 0.46213,-0.46126 0.46213,-0.46126 L 10.01181,5.2451703 h 2.65467 l 1.84766,7.6579297 1.9632,-7.6579297 h 2.57794 z"
           id="path1054-6"
           style="fill:#333333;stroke:none;stroke-width:0.881944"
           sodipodi:nodetypes="cscccsccsccsccccscccccccccccccccc" />
      </g>
    </g>
  </g>
</svg>
