<?xml version="1.0" encoding="UTF-8" standalone="no"?>
<svg
   xmlns:dc="http://purl.org/dc/elements/1.1/"
   xmlns:cc="http://creativecommons.org/ns#"
   xmlns:rdf="http://www.w3.org/1999/02/22-rdf-syntax-ns#"
   xmlns:svg="http://www.w3.org/2000/svg"
   xmlns="http://www.w3.org/2000/svg"
   xmlns:sodipodi="http://sodipodi.sourceforge.net/DTD/sodipodi-0.dtd"
   xmlns:inkscape="http://www.inkscape.org/namespaces/inkscape"
   width="80"
   height="80"
   viewBox="0 0 21.166666 21.166667"
   version="1.1"
   id="svg1408"
   inkscape:version="1.0.1 (3bc2e813f5, 2020-09-07)"
   sodipodi:docname="react.svg">
  <defs
     id="defs1402" />
  <sodipodi:namedview
     id="base"
     pagecolor="#ffffff"
     bordercolor="#666666"
     borderopacity="1.0"
     inkscape:pageopacity="0.0"
     inkscape:pageshadow="2"
     inkscape:zoom="3.959798"
     inkscape:cx="106.40104"
     inkscape:cy="56.555969"
     inkscape:document-units="mm"
     inkscape:current-layer="layer1"
     inkscape:document-rotation="0"
     showgrid="false"
     units="px"
     inkscape:window-width="1920"
     inkscape:window-height="1017"
     inkscape:window-x="-8"
     inkscape:window-y="-8"
     inkscape:window-maximized="1" />
  <metadata
     id="metadata1405">
    <rdf:RDF>
      <cc:Work
         rdf:about="">
        <dc:format>image/svg+xml</dc:format>
        <dc:type
           rdf:resource="http://purl.org/dc/dcmitype/StillImage" />
        <dc:title></dc:title>
      </cc:Work>
    </rdf:RDF>
  </metadata>
  <g
     inkscape:label="Warstwa 1"
     inkscape:groupmode="layer"
     id="layer1">
    <path
       d="m 6.5532836,1.1214018 c -0.45412,-0.014 -0.8828802,0.0776 -1.2615701,0.29631 -0.60597,0.34981 -0.99494,0.97456 -1.1906502,1.73839 -0.1956998,0.76376 -0.2124498,1.68046 -0.0772,2.70507 0.0444,0.33584 0.1110699,0.68724 0.1881298,1.04454 -0.34764,0.11186 -0.6850298,0.22888 -0.99773,0.35828 -0.9549297,0.39517 -1.7404397,0.86801 -2.30407972,1.41939 -0.56358,0.55139 -0.9101799966667,1.20063 -0.9101799966667,1.9003002 0,0.69971 0.3465999966667,1.34893 0.9101799966667,1.90033 0.56364002,0.55139 1.34915002,1.02421 2.30407992,1.41934 0.3127002,0.12934 0.65009,0.24648 0.99773,0.35833 -0.077,0.3573 -0.1437597,0.708 -0.1881298,1.04384 -0.1352601,1.02461 -0.1185201,1.94128 0.0772,2.70509 0.1957102,0.76379 0.5846802,1.38855 1.1906502,1.7384 0.6059101,0.34984 1.3414599,0.37432 2.10079,0.16189 0.7593201,-0.21239 1.5615496,-0.65624 2.3812496,-1.28568 0.2685797,-0.20625 0.5387797,-0.43962 0.8095797,-0.68487 0.27072,0.24512 0.54115,0.47871 0.80961,0.68487 0.81972,0.62944 1.62191,1.07329 2.38125,1.28568 0.75934,0.21243 1.49486,0.18795 2.10081,-0.16189 0.60595,-0.34985 0.99491,-0.97461 1.19061,-1.7384 0.19574,-0.76381 0.21245,-1.68048 0.0772,-2.70509 -0.044,-0.33538 -0.1112,-0.68635 -0.18811,-1.04316 0.34768,-0.11187 0.68492,-0.22957 0.99772,-0.35901 0.95497,-0.39513 1.74045,-0.86795 2.30406,-1.41934 0.56362,-0.5514 0.91018,-1.20062 0.91018,-1.90033 0,-0.6996702 -0.34656,-1.3489102 -0.91018,-1.9003002 -0.56361,-0.55138 -1.34911,-1.02422 -2.30406,-1.41939 -0.3128,-0.12946 -0.65004,-0.24711 -0.99772,-0.35898 0.0769,-0.35685 0.14381,-0.7077 0.18811,-1.04316 0.13527,-1.02462 0.11854,-1.94129 -0.0772,-2.7051 -0.1957,-0.76378 -0.58466,-1.38853 -1.19061,-1.73834 -0.60595,-0.34989 -1.34147,-0.37436 -2.10081,-0.16195 -0.75934,0.21236 -1.56153,0.65625 -2.38125,1.28567 -0.26846,0.20621 -0.53889,0.43973 -0.80961,0.68493 -0.2708,-0.24533 -0.541,-0.47931 -0.8095797,-0.68562 -0.8197,-0.62942 -1.6219295,-1.07327 -2.3812496,-1.28568 -0.28474,-0.0796 -0.5667499,-0.12599 -0.8392201,-0.13436 z m -0.0167,0.7035 c 0.2052198,0.007 0.4272698,0.0438 0.6655998,0.11093 0.63559,0.1778 1.3713499,0.57495 2.1407699,1.16579 0.23879,0.18338 0.48202,0.39139 0.7255397,0.61048 -0.6979597,0.693 -1.3903397,1.50941 -2.0539699,2.42259 -1.1226001,0.11815 -2.1755603,0.30984 -3.1246802,0.56776 -0.0679,-0.32054 -0.12665,-0.63505 -0.1660301,-0.93363 -0.1269499,-0.96178 -0.1032099,-1.79769 0.0604,-2.43702 0.1638699,-0.63935 0.4534799,-1.06832 0.85993,-1.30299 0.25401,-0.14661 0.5502399,-0.216 0.8922599,-0.20391 z m 8.0925194,6.91e-4 c 0.34205,-0.0122 0.63895,0.057 0.89297,0.20392 0.40644,0.23467 0.69606,0.66294 0.85989,1.30229 0.16381,0.63933 0.1869,1.47594 0.0597,2.43771 -0.0399,0.29855 -0.0976,0.61244 -0.16534,0.932939 -0.94914,-0.25792 -2.00206,-0.44963 -3.12471,-0.56776 -0.66358,-0.91318 -1.35602,-1.72886 -2.05397,-2.4219 0.24351,-0.2191 0.48607,-0.42712 0.72484,-0.61048 0.76943,-0.59083 1.50518,-0.98868 2.14081,-1.16648 0.23833,-0.0665 0.46036,-0.10305 0.66557,-0.11025 z m -4.04592,2.371599 c 0.54627,0.54151 1.09466,1.16498 1.62954,1.85826 -0.53243,-0.0348 -1.07376,-0.0576 -1.62954,-0.0576 -0.55599,0 -1.0975797,0.0235 -1.6301997,0.0576 0.535,-0.69344 1.0838197,-1.31666 1.6301997,-1.85826 z m 0,2.50595 c 0.75035,0 1.47928,0.0373 2.18213,0.10135 0.4072,0.57633 0.80309,1.18927 1.1782,1.83898 0.37526,0.64997 0.70831,1.29921 1.00393,1.9402602 -0.29562,0.64107 -0.62867,1.29033 -1.00393,1.94029 -0.37511,0.64969 -0.771,1.26264 -1.1782,1.83899 -0.70285,0.0643 -1.43178,0.10131 -2.18213,0.10131 -0.7503397,0 -1.4792797,-0.0373 -2.1821095,-0.10131 -0.40737,-0.57654 -0.8036499,-1.18904 -1.1789201,-1.83899 -0.3752498,-0.64996 -0.70758,-1.29992 -1.0031899,-1.94098 0.2954499,-0.6406102 0.62821,-1.2900602 1.0031899,-1.9395702 0.3752702,-0.64997 0.7715501,-1.26244 1.1789201,-1.83898 0.7028298,-0.0643 1.4317698,-0.10135 2.1821095,-0.10135 z m -3.1067695,0.20466 c -0.29634,0.44389 -0.5874099,0.90133 -0.8654,1.38283 -0.2778,0.48115 -0.5280001,0.96182 -0.7641301,1.44006 -0.3329901,-0.80992 -0.5986198,-1.59605 -0.79442,-2.33991 0.7421801,-0.20235 1.5559601,-0.36641 2.4239501,-0.48298 z m 6.2128595,0 c 0.86826,0.11652 1.68229,0.28058 2.42466,0.48298 -0.19582,0.74387 -0.46142,1.53066 -0.79444,2.3406 -0.23626,-0.47863 -0.48681,-0.9592 -0.7648,-1.44075 -0.2779,-0.48132 -0.56918,-0.93908 -0.86542,-1.38283 z m -9.3141297,0.68623 c 0.2512201,0.95095 0.6117,1.95838 1.0707302,2.9896502 -0.4590601,1.03131 -0.8195101,2.03868 -1.0707302,2.98966 -0.3114899,-0.10136 -0.6127199,-0.20736 -0.8908798,-0.32245 -0.8963901,-0.37095 -1.6090501,-0.80971 -2.0808201,-1.27124 -0.47176992,-0.46157 -0.69799992,-0.92665 -0.69799992,-1.39597 0,-0.46929 0.22623,-0.9344002 0.69799992,-1.3959402 0.47177,-0.46155 1.18443,-0.90032 2.0808201,-1.27123 0.2781599,-0.11508 0.5793899,-0.22114 0.8908798,-0.32248 z m 12.4154097,0 c 0.3117,0.10133 0.61325,0.20729 0.89158,0.32248 0.8964,0.37091 1.60907,0.80968 2.08083,1.27123 0.47178,0.46154 0.69799,0.9266502 0.69799,1.3959402 0,0.46932 -0.22621,0.9344 -0.69799,1.39597 -0.47176,0.46153 -1.18443,0.90029 -2.08083,1.27124 -0.27815,0.11505 -0.57943,0.22109 -0.89089,0.32245 -0.25117,-0.95102 -0.61236,-1.9583 -1.07143,-2.98966 0.45895,-1.0311102 0.81957,-2.0388502 1.07074,-2.9896502 z m -6.20737,0.52021 c -1.3596497,0 -2.4694295,1.10979 -2.4694295,2.4694402 0,1.35966 1.1097798,2.46946 2.4694295,2.46946 1.35966,0 2.46946,-1.1098 2.46946,-2.46946 0,-1.3596502 -1.1098,-2.4694402 -2.46946,-2.4694402 z m 0,0.70557 c 0.97836,0 1.7639,0.78553 1.7639,1.7638702 0,0.97836 -0.78554,1.7639 -1.7639,1.7639 -0.9783297,0 -1.7638797,-0.78554 -1.7638797,-1.7639 0,-0.9783402 0.78555,-1.7638702 1.7638797,-1.7638702 z m 4.73631,2.6162002 c 0.33302,0.80992 0.59862,1.5967 0.79444,2.34058 -0.74237,0.20243 -1.5564,0.36641 -2.42466,0.483 0.29624,-0.44378 0.58752,-0.90154 0.86542,-1.38282 0.27799,-0.48156 0.52854,-0.96214 0.7648,-1.44076 z M 5.8468834,11.4367 c 0.2360901,0.47817 0.4863901,0.95899 0.7641301,1.44007 0.2779901,0.48146 0.56906,0.9389 0.8654,1.38282 -0.86799,-0.11654 -1.68177,-0.28062 -2.4239501,-0.483 0.1958002,-0.74387 0.4614299,-1.53 0.79442,-2.33989 z m -0.95704,3.02821 c 0.9491199,0.25796 2.0020801,0.44966 3.1246802,0.56775 0.6636297,0.91319 1.3560097,1.72961 2.0539694,2.42259 -0.2435197,0.2191 -0.4867497,0.42642 -0.7255397,0.60978 -0.76942,0.59085 -1.5051798,0.98873 -2.1407698,1.16651 -0.6355901,0.1778 -1.15144,0.14166 -1.5578702,-0.0932 -0.4064399,-0.23465 -0.6967399,-0.6636 -0.8605898,-1.30292 -0.16379,-0.63933 -0.1869001,-1.47598 -0.0597,-2.43774 0.0399,-0.29856 0.0982,-0.61241 0.1660199,-0.93295 z m 11.3866996,0 c 0.0678,0.3205 0.12599,0.63444 0.16535,0.93296 0.12694,0.96174 0.10387,1.7984 -0.0598,2.43773 -0.16383,0.63933 -0.45346,1.06759 -0.8599,1.30223 -0.40643,0.23468 -0.92228,0.27151 -1.55786,0.0939 -0.63561,-0.17778 -1.37206,-0.57567 -2.14148,-1.16651 -0.2388,-0.18337 -0.48133,-0.39139 -0.72485,-0.61046 0.69795,-0.69305 1.39039,-1.50873 2.05397,-2.42192 1.12265,-0.11811 2.17558,-0.30979 3.1247,-0.56774 z M 8.9529833,15.1119 c 0.53262,0.035 1.0742097,0.0576 1.6301997,0.0576 0.55578,0 1.09711,-0.0235 1.62954,-0.0576 -0.5349,0.69332 -1.08325,1.3168 -1.62954,1.85828 -0.54636,-0.54155 -1.0952197,-1.16484 -1.6301997,-1.85828 z"
       id="path1032"
       style="fill:#333333;stroke-width:0.352774"
       sodipodi:nodetypes="cssccssssccssssscssssscssssscssssscscccssccccssccccsccccssccccsccscscscscscscscsccccccsccccsssssccssssscccsssssssssscccsccscccsccssssccsccssssccsccsccc"
       inkscape:export-filename="C:\Projekty\PersonalPage\portfolio\public\react.png"
       inkscape:export-xdpi="96.625801"
       inkscape:export-ydpi="96.625801" />
  </g>
</svg>
