<?xml version="1.0" encoding="UTF-8" standalone="no"?>
<svg
   xmlns:dc="http://purl.org/dc/elements/1.1/"
   xmlns:cc="http://creativecommons.org/ns#"
   xmlns:rdf="http://www.w3.org/1999/02/22-rdf-syntax-ns#"
   xmlns:svg="http://www.w3.org/2000/svg"
   xmlns="http://www.w3.org/2000/svg"
   xmlns:sodipodi="http://sodipodi.sourceforge.net/DTD/sodipodi-0.dtd"
   xmlns:inkscape="http://www.inkscape.org/namespaces/inkscape"
   width="80"
   height="80"
   viewBox="0 0 21.166666 21.166667"
   version="1.1"
   id="svg1408"
   inkscape:version="1.0.1 (3bc2e813f5, 2020-09-07)"
   sodipodi:docname="vitest.svg">
  <defs
     id="defs1402" />
  <sodipodi:namedview
     id="base"
     pagecolor="#ffffff"
     bordercolor="#666666"
     borderopacity="1.0"
     inkscape:pageopacity="0.0"
     inkscape:pageshadow="2"
     inkscape:zoom="3.959798"
     inkscape:cx="106.40104"
     inkscape:cy="56.555969"
     inkscape:document-units="mm"
     inkscape:current-layer="layer1"
     inkscape:document-rotation="0"
     showgrid="false"
     units="px"
     inkscape:window-width="1920"
     inkscape:window-height="1017"
     inkscape:window-x="-8"
     inkscape:window-y="-8"
     inkscape:window-maximized="1" />
  <metadata
     id="metadata1405">
    <rdf:RDF>
      <cc:Work
         rdf:about="">
        <dc:format>image/svg+xml</dc:format>
        <dc:type
           rdf:resource="http://purl.org/dc/dcmitype/StillImage" />
        <dc:title></dc:title>
      </cc:Work>
    </rdf:RDF>
  </metadata>
  <g
     inkscape:label="Warstwa 1"
     inkscape:groupmode="layer"
     id="layer1">
    <path
       style="fill:none;stroke:#333333;stroke-width:0.601694;stroke-miterlimit:4;stroke-dasharray:none"
       d="m 10.054029,19.816819 c -0.1421503,-0.0924 -2.3783203,-2.29465 -4.9692803,-4.8938 -4.09400007,-4.106951 -4.71830007,-4.766971 -4.76780007,-5.0404407 -0.11777,-0.65079 0.37706,-1.19296 1.08874997,-1.19296 h 0.3708101 l 4.39741,4.3920107 4.3973903,4.392 4.39685,-4.392 4.39681,-4.3920107 h 0.45751 c 0.40546,0 0.49086,0.0333 0.75045,0.29291 0.25227,0.25228 0.29289,0.35066 0.29289,0.70918 v 0.4162597 l -4.89748,4.899771 c -4.80788,4.81016 -4.90439,4.90047 -5.27665,4.93846 -0.27903,0.0284 -0.44748,-0.005 -0.63766,-0.12938 z m 0.0994,-5.77129 c -0.13054,-0.14423 -0.13415,-0.32915 -0.0422,-2.153881 0.0554,-1.09788 0.0845,-2.0120597 0.0649,-2.0315597 -0.0196,-0.0195 -0.7336103,-0.18084 -1.5864903,-0.35859 -0.85288,-0.17772 -1.61854,-0.38097 -1.70145,-0.45164 -0.0829,-0.0707 -0.15077,-0.20973 -0.15077,-0.30902 0,-0.22626 4.9445903,-7.38876 5.1742803,-7.49526 0.10884,-0.0503 0.24889,-0.0414 0.39561,0.0255 l 0.22714,0.10348 -0.0579,1.48227 c -0.0318,0.81524 -0.0809,1.75663 -0.10918,2.09197 l -0.0513,0.60972 1.6166,0.33743 c 0.88912,0.1856 1.67284,0.37857 1.74158,0.42885 0.31325,0.22906 0.16574,0.48893 -2.29563,4.0448797 -1.34472,1.942711 -2.50348,3.600041 -2.575,3.682961 -0.16877,0.19569 -0.46966,0.19244 -0.65015,-0.007 z"
       id="path1616" />
  </g>
</svg>
